
<svg version="1.1" id="Capa_1" xmlns="http://www.w3.org/2000/svg" xmlns:xlink="http://www.w3.org/1999/xlink" x="0px" y="0px"
	 viewBox="0 0 247.574 247.574" style="enable-background:new 0 0 247.574 247.574;" xml:space="preserve">
<g>
	<path d="M123.787,0.001C55.53,0.001,0,55.531,0,123.787s55.53,123.786,123.787,123.786s123.787-55.53,123.787-123.786
		S192.044,0.001,123.787,0.001z M123.787,232.573C63.802,232.573,15,183.772,15,123.787S63.802,15.001,123.787,15.001
		s108.787,48.801,108.787,108.786S183.773,232.573,123.787,232.573z"/>
	<path d="M133.047,123.786l42.316-58.429c2.43-3.355,1.68-8.044-1.675-10.474c-3.356-2.429-8.043-1.68-10.474,1.675L123.787,111
		l-39.43-54.441c-2.43-3.356-7.12-4.105-10.474-1.675c-3.354,2.43-4.104,7.119-1.675,10.474l42.317,58.429l-42.317,58.43
		c-2.43,3.355-1.68,8.044,1.675,10.474c1.33,0.963,2.868,1.426,4.394,1.426c2.322,0,4.613-1.076,6.08-3.101l39.43-54.442
		l39.43,54.442c1.467,2.025,3.757,3.101,6.08,3.101c1.525,0,3.064-0.463,4.393-1.426c3.355-2.43,4.105-7.119,1.675-10.474
		L133.047,123.786z"/>
</g>
<g>
</g>
<g>
</g>
<g>
</g>
<g>
</g>
<g>
</g>
<g>
</g>
<g>
</g>
<g>
</g>
<g>
</g>
<g>
</g>
<g>
</g>
<g>
</g>
<g>
</g>
<g>
</g>
<g>
</g>
</svg>
